<svg width="94" height="132" viewBox="0 0 94 132" fill="none" xmlns="http://www.w3.org/2000/svg">
<g id="_&#229;&#156;&#150;&#229;&#177;&#164;_1" clip-path="url(#clip0_11_258)">
<path id="Vector" d="M68.5708 6.18373H74.3534V0H59.8817V6.18373C61.7957 8.09415 62.8388 9.04936 65.6137 11.8245H59.8817V17.4653H74.3027V11.8245L68.5708 6.18373ZM48.0937 6.18373H53.8763V0H39.4047V6.18373C41.3187 8.09415 42.3618 9.04936 45.1366 11.8245H39.4047V17.4653H53.8257V11.8245L48.0937 6.18373ZM24.9836 11.8245V6.18373H33.217V0H18.796V17.4552H33.217V11.8144H24.9836V11.8245Z" fill="white"/>
<path id="Vector_2" d="M76.1155 45.639L74.9306 57.1819L47.6279 68.9059H73.8369L70.738 104.812L46.9899 111.81V111.86H46.8987L22.9177 104.721L21.3682 86.6326H33.2879L34.0575 95.9936L46.838 99.2212L60.0741 95.4507L60.9856 80.3583L21.3075 80.2176L20.5783 80.5393L19.6669 69.2679V68.9461H20.3454L46.5544 57.9461V57.7148L48.6507 56.8501H18.4415L17.0338 45.6691H46.605L76.0851 45.6189L76.1155 45.639ZM0 26.4041L8.83086 121.724L47.0506 132L85.2704 121.724L94.0101 26.4041H0Z" fill="white"/>
</g>
<defs>
<clipPath id="clip0_11_258">
<rect width="94" height="132" fill="white"/>
</clipPath>
</defs>
</svg>
