<svg width="32" height="32" viewBox="0 0 32 32" fill="none" xmlns="http://www.w3.org/2000/svg">
<rect width="32" height="32" fill="#F5F5F5"/>
<path d="M-957 -2043C-957 -2044.1 -956.105 -2045 -955 -2045H303C304.105 -2045 305 -2044.1 305 -2043V165C305 166.104 304.105 167 303 167H-955C-956.105 167 -957 166.104 -957 165V-2043Z" fill="#404040"/>
<rect width="1024" height="132" transform="translate(-842 -50)" fill="#323228"/>
<g clip-path="url(#clip0_0_1)">
<path d="M32 16.098C32 7.206 24.836 -0.0019989 16 -0.0019989C7.15997 1.09873e-06 -0.00402832 7.206 -0.00402832 16.1C-0.00402832 24.134 5.84797 30.794 13.496 32.002V20.752H9.43597V16.1H13.5V12.55C13.5 8.516 15.89 6.288 19.544 6.288C21.296 6.288 23.126 6.602 23.126 6.602V10.562H21.108C19.122 10.562 18.502 11.804 18.502 13.078V16.098H22.938L22.23 20.75H18.5V32C26.148 30.792 32 24.132 32 16.098Z" fill="white"/>
</g>
<path d="M-955 -2044H303V-2046H-955V-2044ZM304 -2043V165H306V-2043H304ZM303 166H-955V168H303V166ZM-956 165V-2043H-958V165H-956ZM-955 166C-955.552 166 -956 165.552 -956 165H-958C-958 166.657 -956.657 168 -955 168V166ZM304 165C304 165.552 303.552 166 303 166V168C304.657 168 306 166.657 306 165H304ZM303 -2044C303.552 -2044 304 -2043.55 304 -2043H306C306 -2044.66 304.657 -2046 303 -2046V-2044ZM-955 -2046C-956.657 -2046 -958 -2044.66 -958 -2043H-956C-956 -2043.55 -955.552 -2044 -955 -2044V-2046Z" fill="white" fill-opacity="0.1"/>
<defs>
<clipPath id="clip0_0_1">
<rect width="32" height="32" fill="white"/>
</clipPath>
</defs>
</svg>
