<svg width="94" height="132" viewBox="0 0 94 132" fill="none" xmlns="http://www.w3.org/2000/svg">
<g id="_&#229;&#156;&#150;&#229;&#177;&#164;_1" clip-path="url(#clip0_11_252)">
<g id="Page-1">
<g id="course-4">
<g id="html-5">
<path id="Shape" d="M8.87935 0H14.8527V5.83032H20.3216V0H26.3051V17.6515H20.3317V11.7409H14.8628V17.6515H8.88944V0H8.87935ZM34.1653 5.85039H28.8982V0H45.4058V5.85039H40.1387V17.6515H34.1653V5.85039ZM48.0292 0H54.2649L58.0992 6.20161L61.9334 0H68.1692V17.6515H62.216V8.90102L58.0992 15.1729H57.9983L53.8815 8.90102V17.6515H48.0292V0ZM71.1357 0H77.1191V11.8212H85.5243V17.6515H71.1357V0Z" fill="white"/>
<path id="Vector" d="M0 26.0808L8.55646 121.413L46.9395 132L85.4334 121.393L94 26.0708H0V26.0808ZM76.3725 48.4789L75.8377 54.4096L75.6056 57.0387H46.9596H30.5934L31.6629 69.0104H47.2018H74.526L74.2435 72.1514L71.4787 102.929L71.2971 104.906L47.1917 111.549H47.1413L23.0863 104.906L21.4416 86.5516H33.2269L34.0644 95.8741L47.1413 99.3863H47.1917L60.2988 95.864L61.661 80.7012H40.0983H20.8967L18.011 48.4889L17.7284 45.348H76.6247L76.3422 48.4889L76.3725 48.4789Z" fill="white"/>
</g>
</g>
</g>
</g>
<defs>
<clipPath id="clip0_11_252">
<rect width="94" height="132" fill="white"/>
</clipPath>
</defs>
</svg>
