<svg width="24" height="24" viewBox="0 0 24 24" fill="none" xmlns="http://www.w3.org/2000/svg">
<g id="icon-arrow">
<path id="Vector" fill-rule="evenodd" clip-rule="evenodd" d="M5 12C5 11.7727 5.09218 11.5547 5.25625 11.394C5.42033 11.2333 5.64286 11.143 5.8749 11.143H16.0115L12.2547 7.46482C12.0904 7.3039 11.9981 7.08565 11.9981 6.85807C11.9981 6.6305 12.0904 6.41224 12.2547 6.25132C12.419 6.0904 12.6418 6 12.8741 6C13.1065 6 13.3293 6.0904 13.4936 6.25132L18.743 11.3933C18.8244 11.4729 18.8891 11.5674 18.9332 11.6715C18.9773 11.7757 19 11.8873 19 12C19 12.1127 18.9773 12.2243 18.9332 12.3285C18.8891 12.4326 18.8244 12.5271 18.743 12.6067L13.4936 17.7487C13.3293 17.9096 13.1065 18 12.8741 18C12.6418 18 12.419 17.9096 12.2547 17.7487C12.0904 17.5878 11.9981 17.3695 11.9981 17.1419C11.9981 16.9144 12.0904 16.6961 12.2547 16.5352L16.0115 12.857H5.8749C5.64286 12.857 5.42033 12.7667 5.25625 12.606C5.09218 12.4453 5 12.2273 5 12Z" fill="white"/>
</g>
</svg>
