<svg width="32" height="32" viewBox="0 0 32 32" fill="none" xmlns="http://www.w3.org/2000/svg">
<rect width="32" height="32" fill="#F5F5F5"/>
<path d="M-1065 -2043C-1065 -2044.1 -1064.1 -2045 -1063 -2045H195C196.105 -2045 197 -2044.1 197 -2043V165C197 166.104 196.105 167 195 167H-1063C-1064.1 167 -1065 166.104 -1065 165V-2043Z" fill="#404040"/>
<rect width="1024" height="132" transform="translate(-950 -50)" fill="#323228"/>
<path fill-rule="evenodd" clip-rule="evenodd" d="M16 32C24.8366 32 32 24.8366 32 16C32 7.16344 24.8366 0 16 0C7.16344 0 0 7.16344 0 16C0 24.8366 7.16344 32 16 32ZM11.8787 6.06C12.945 6.0125 13.2863 6 16 6H15.9975C18.715 6 19.0537 6.0125 20.1213 6.06C21.185 6.10875 21.9125 6.2775 22.55 6.525C23.2175 6.77581 23.822 7.16959 24.3212 7.67875C24.8299 8.17834 25.2237 8.78278 25.475 9.45C25.7213 10.085 25.89 10.8125 25.94 11.8763C25.9875 12.9438 26 13.2837 26 16C26 18.7162 25.9875 19.0562 25.94 20.1225C25.89 21.1875 25.7213 21.9137 25.475 22.55C25.2188 23.2075 24.8775 23.765 24.3212 24.3212C23.8223 24.8301 23.2182 25.2239 22.5513 25.475C21.915 25.7225 21.1863 25.89 20.1225 25.94C19.055 25.9875 18.7162 26 16 26C13.2837 26 12.9438 25.9875 11.8763 25.94C10.8113 25.8912 10.0863 25.7225 9.44875 25.475C8.79125 25.22 8.23375 24.8775 7.67875 24.3212C7.1225 23.765 6.78125 23.2075 6.525 22.55C6.2775 21.9137 6.11 21.1875 6.06 20.1225C6.0125 19.0562 6 18.7163 6 16.0013C6 13.2838 6.0125 12.9437 6.06 11.875C6.10875 10.8125 6.2775 10.085 6.525 9.45C6.77638 8.7828 7.1701 8.17837 7.67875 7.67875C8.17811 7.16978 8.78262 6.77602 9.45 6.525C10.0863 6.2775 10.8125 6.11 11.8787 6.06ZM16.0013 7.8025H15.1038V7.8C13.24 7.80125 12.8825 7.81375 11.96 7.85625C10.985 7.90125 10.4563 8.06375 10.1038 8.20125C9.63625 8.3825 9.30375 8.59875 8.95375 8.94875C8.60375 9.29875 8.38625 9.6325 8.205 10.0988C8.0675 10.4513 7.905 10.9812 7.86 11.9563C7.8125 13.01 7.8025 13.325 7.8025 15.995C7.8025 18.6663 7.8125 18.9825 7.86 20.0363C7.90375 21.0112 8.0675 21.5413 8.20375 21.8925C8.36465 22.3271 8.62094 22.72 8.95375 23.0425C9.27641 23.3745 9.66937 23.6299 10.1038 23.79C10.4563 23.9275 10.985 24.09 11.96 24.135C13.0138 24.1825 13.3313 24.1938 16.0013 24.1938C18.6713 24.1938 18.9875 24.1825 20.0413 24.135C21.0175 24.09 21.5475 23.9275 21.8975 23.79C22.365 23.6088 22.6975 23.3925 23.0475 23.0425C23.38 22.7205 23.6359 22.3279 23.7963 21.8937C23.9325 21.5413 24.0963 21.0125 24.14 20.0375C24.1887 18.9837 24.1987 18.6663 24.1987 15.9975C24.1987 13.3288 24.1887 13.0125 24.14 11.9587C24.0963 10.9838 23.9338 10.4537 23.7963 10.1025C23.615 9.635 23.3988 9.3025 23.0487 8.9525C22.6987 8.6025 22.365 8.385 21.8988 8.20375C21.5462 8.0675 21.0163 7.90375 20.0413 7.86C18.9875 7.81125 18.6713 7.8025 16.0013 7.8025ZM20.8795 9.55384C21.0251 9.49354 21.1812 9.4625 21.3387 9.4625C21.657 9.4625 21.9622 9.58893 22.1873 9.81397C22.4123 10.039 22.5387 10.3442 22.5387 10.6625C22.5387 10.9808 22.4123 11.286 22.1873 11.511C21.9622 11.7361 21.657 11.8625 21.3387 11.8625C21.1812 11.8625 21.0251 11.8315 20.8795 11.7712C20.7339 11.7108 20.6017 11.6225 20.4902 11.511C20.3788 11.3996 20.2904 11.2673 20.2301 11.1217C20.1698 10.9761 20.1388 10.8201 20.1388 10.6625C20.1388 10.5049 20.1698 10.3489 20.2301 10.2033C20.2904 10.0577 20.3788 9.9254 20.4902 9.81397C20.6017 9.70254 20.7339 9.61415 20.8795 9.55384ZM14.0112 11.2327C14.6436 10.9794 15.3201 10.8544 16.0013 10.865C17.3494 10.886 18.6353 11.4364 19.5812 12.3972C20.5272 13.358 21.0574 14.6523 21.0574 16.0006C21.0574 17.349 20.5272 18.6432 19.5812 19.6041C18.6353 20.5649 17.3494 21.1152 16.0013 21.1362C15.3201 21.1469 14.6436 21.0219 14.0112 20.7686C13.3788 20.5153 12.8031 20.1387 12.3177 19.6607C11.8322 19.1828 11.4467 18.613 11.1836 17.9847C10.9204 17.3563 10.7849 16.6819 10.7849 16.0006C10.7849 15.3194 10.9204 14.6449 11.1836 14.0166C11.4467 13.3882 11.8322 12.8185 12.3177 12.3405C12.8031 11.8626 13.3788 11.486 14.0112 11.2327ZM18.3586 13.6427C17.7334 13.0175 16.8854 12.6663 16.0013 12.6663C15.1171 12.6663 14.2691 13.0175 13.6439 13.6427C13.0187 14.2679 12.6675 15.1158 12.6675 16C12.6675 16.8842 13.0187 17.7321 13.6439 18.3573C14.2691 18.9825 15.1171 19.3337 16.0013 19.3337C16.8854 19.3337 17.7334 18.9825 18.3586 18.3573C18.9838 17.7321 19.335 16.8842 19.335 16C19.335 15.1158 18.9838 14.2679 18.3586 13.6427Z" fill="white"/>
<path d="M-1063 -2044H195V-2046H-1063V-2044ZM196 -2043V165H198V-2043H196ZM195 166H-1063V168H195V166ZM-1064 165V-2043H-1066V165H-1064ZM-1063 166C-1063.55 166 -1064 165.552 -1064 165H-1066C-1066 166.657 -1064.66 168 -1063 168V166ZM196 165C196 165.552 195.552 166 195 166V168C196.657 168 198 166.657 198 165H196ZM195 -2044C195.552 -2044 196 -2043.55 196 -2043H198C198 -2044.66 196.657 -2046 195 -2046V-2044ZM-1063 -2046C-1064.66 -2046 -1066 -2044.66 -1066 -2043H-1064C-1064 -2043.55 -1063.55 -2044 -1063 -2044V-2046Z" fill="white" fill-opacity="0.1"/>
</svg>
