<svg width="92" height="135" viewBox="0 0 92 135" fill="none" xmlns="http://www.w3.org/2000/svg">
<g clip-path="url(#clip0_11_13)">
<path d="M8.58 124.16L45.94 135L83.41 124.15L91.75 26.5699H0.25L8.58 124.16Z" fill="#4A4A4A"/>
<path fill-rule="evenodd" clip-rule="evenodd" d="M46.34 126.38L76.42 117.64L83.49 34.47H46.34V126.38Z" fill="#9B9B9B"/>
<path d="M46.3399 113.44V101.04L46.2899 101.05L33.4599 97.47L32.6399 87.96H21.0699L22.6799 106.68L46.2899 113.46L46.3399 113.44Z" fill="#EBEBEB"/>
<path d="M17.7199 49.16L20.5599 82H46.34V70.08H31.09L30.04 57.88H46.34V45.96H17.45L17.7199 49.16Z" fill="#EBEBEB"/>
<path fill-rule="evenodd" clip-rule="evenodd" d="M19.6 0V6.16H14.3V0H8.51001V18.67H14.3V12.42H19.6V18.67H25.39V0H19.59H19.6ZM27.91 0V6.19H33.01V18.67H38.81V6.19H43.91V0H27.91ZM59.92 0L56.21 6.56L52.49 0H46.45V18.67H52.12V9.42L56.11 16.06H56.21L60.2 9.42V18.67H65.97V0H59.92ZM68.85 0V18.67H82.8V12.5H74.65V0H68.85Z" fill="#4A4A4A"/>
<path d="M46.34 101.06V113.46L69.99 106.68L70.16 104.67L72.87 73.29L73.15 70.09H46.34V82.01H60.55L59.21 97.47L46.34 101.06Z" fill="white"/>
<path d="M46.34 57.85V57.88H74.2L74.43 55.2L74.96 49.16L75.24 45.96H46.34V57.85Z" fill="white"/>
</g>
<defs>
<clipPath id="clip0_11_13">
<rect width="91.5" height="135" fill="white" transform="translate(0.25)"/>
</clipPath>
</defs>
</svg>
