<svg width="92" height="135" viewBox="0 0 92 135" fill="none" xmlns="http://www.w3.org/2000/svg">
<g clip-path="url(#clip0_11_26)">
<path d="M8.72994 124.05L45.9499 134.92L83.2599 124.03L91.5599 26.22H0.439941L8.72994 124.05Z" fill="#4A4A4A"/>
<path d="M46 127.3L75.94 118.47L82.98 34.53H46V127.3Z" fill="#9B9B9B"/>
<path fill-rule="evenodd" clip-rule="evenodd" d="M46 46.3H17.61L17.88 49.4901L20.66 82.3001H46V70.39H31.02L29.98 58.2001H46V46.3Z" fill="#EBEBEB"/>
<path d="M72.35 70.39H46V82.3H59.96H71.32L72.35 70.39Z" fill="white"/>
<path d="M46 58.18V58.2001H73.38L73.61 55.53L74.13 49.4901L74.4 46.3H46V58.18Z" fill="white"/>
<path fill-rule="evenodd" clip-rule="evenodd" d="M17.61 46.3L22.51 106.97L34.78 110.68L29.2 46.3H17.61Z" fill="#EBEBEB"/>
<path fill-rule="evenodd" clip-rule="evenodd" d="M59.87 82.3001L72.34 70.39L74.4 46.3H62.96L59.87 82.3001Z" fill="white"/>
<path fill-rule="evenodd" clip-rule="evenodd" d="M51.2899 111.38L63.0999 106.4L65.1499 82.3H53.7699L51.2899 111.38Z" fill="white"/>
<path fill-rule="evenodd" clip-rule="evenodd" d="M51.2899 111.38L69.3699 106.06L70.4299 93.38L52.3699 98.55L51.2899 111.38Z" fill="white"/>
<path d="M29.4099 8.87C29.9199 8.02 30.1799 7.04 30.1799 5.92C30.1799 4.8 29.9799 3.81 29.5799 3.05C29.1799 2.29 28.6499 1.68 27.9999 1.22C27.3499 0.77 26.6099 0.45 25.7799 0.27C24.9399 0.09 24.1099 0 23.2699 0H15.8999V18.24H21.4899V11.72H21.6599L24.9399 18.24H31.5499L27.2099 10.85C28.1699 10.39 28.9099 9.73 29.4299 8.88L29.4099 8.87ZM24.3399 6.96C24.1999 7.16 24.0399 7.31 23.8399 7.42C23.6399 7.53 23.4199 7.6 23.1899 7.64C22.9599 7.67 22.7499 7.69 22.5499 7.69H21.4199V4.75H22.7899C22.9699 4.75 23.1599 4.76 23.3699 4.79C23.5799 4.82 23.7699 4.88 23.9499 4.97C24.1299 5.06 24.2699 5.21 24.3799 5.39C24.4899 5.58 24.5499 5.84 24.5499 6.16C24.5499 6.48 24.4799 6.75 24.3499 6.95L24.3399 6.96Z" fill="#4A4A4A"/>
<path d="M49.5799 10.25H49.4799L47.3299 0H41.3099L39.3299 10.25H39.2299L37.3899 0H31.2999L35.9599 18.24H41.7699L44.2599 7.93H44.3499L46.7699 18.24H52.5699L57.3399 0H51.4399L49.5799 10.25Z" fill="#4A4A4A"/>
<path d="M72.1899 1.88999C71.2499 1.18999 70.1599 0.69999 68.9299 0.41999C67.6999 0.13999 66.3999 -0.0100098 65.0499 -0.0100098H58.6699V18.23H65.5399C66.8099 18.23 68.0399 18.05 69.2099 17.69C70.3899 17.33 71.4299 16.78 72.3299 16.03C73.2299 15.28 73.9499 14.33 74.4899 13.16C75.0299 11.99 75.2999 10.61 75.2999 9.00999C75.2999 7.25999 75.0199 5.80999 74.4499 4.65999C73.8899 3.50999 73.1299 2.58999 72.1899 1.88999ZM68.3799 12.02C67.6499 12.64 66.6199 12.96 65.2599 12.96H64.1999V5.20999H65.4799C66.6899 5.20999 67.6599 5.53999 68.3799 6.19999C69.1099 6.85999 69.4699 7.77999 69.4699 8.95999C69.4699 10.38 69.1099 11.4 68.3799 12.03V12.02Z" fill="#4A4A4A"/>
</g>
<defs>
<clipPath id="clip0_11_26">
<rect width="91.12" height="134.92" fill="white" transform="translate(0.439941)"/>
</clipPath>
</defs>
</svg>
