<svg width="136" height="143" viewBox="0 0 136 143" fill="none" xmlns="http://www.w3.org/2000/svg">
<g clip-path="url(#clip0_11_45)" filter="url(#filter0_d_11_45)">
<path fill-rule="evenodd" clip-rule="evenodd" d="M33.8252 130.343C33.8152 130.662 33.7853 131.002 33.7453 131.352L35.1644 128.973L35.0045 128.194L36.4337 127.994L36.9534 131.292L37.613 129.223C37.663 129.023 37.6929 128.874 37.7029 128.724C37.7029 128.574 37.6929 128.414 37.633 128.194L39.1221 127.934C39.1721 128.214 39.212 128.454 39.202 128.714C39.192 129.043 39.1021 129.413 38.8523 129.953L37.653 132.931H35.874L35.5042 130.702L34.1151 132.931H32.3861C32.456 130.852 32.3761 129.553 32.2162 128.194L33.6953 127.984C33.8052 128.744 33.8652 129.493 33.8352 130.353" fill="#9B9B9B"/>
<path fill-rule="evenodd" clip-rule="evenodd" d="M43.1697 129.203C42.4401 129.543 42.1803 129.673 41.5207 130.033L40.8211 132.921H39.202L40.3414 128.134L41.7705 127.924L41.7105 128.594C42.2602 128.314 42.7099 128.114 43.1997 127.924L43.1697 129.203Z" fill="#9B9B9B"/>
<path fill-rule="evenodd" clip-rule="evenodd" d="M44.2291 127.564L45.7282 127.344L44.6488 132.921H43.1997L44.2291 127.564ZM44.6988 125.146L46.1979 124.926L45.8681 126.615L44.379 126.845L44.6988 125.156V125.146Z" fill="#9B9B9B"/>
<path fill-rule="evenodd" clip-rule="evenodd" d="M48.6064 129.683L48.0268 132.362C48.0168 132.422 47.9968 132.472 47.9968 132.501C47.9968 132.581 48.0368 132.611 48.1567 132.611C48.4266 132.611 48.7364 132.501 49.0262 132.392L49.306 133.471C48.8463 133.711 48.1767 133.911 47.5371 133.911C46.7376 133.911 46.3178 133.531 46.3378 132.891C46.3378 132.811 46.3578 132.741 46.3678 132.661L47.0174 129.673H46.1979L46.4677 128.424H47.2872L47.5571 127.135L49.2061 126.915L48.8763 128.424H50.1855L49.8257 129.673H48.6064" fill="#9B9B9B"/>
<path fill-rule="evenodd" clip-rule="evenodd" d="M49.6359 129.733C49.9157 128.634 50.5353 127.924 52.3443 127.924C53.4236 127.924 54.2331 128.314 54.1932 129.123C54.1532 130.063 53.5635 130.493 52.1344 130.852C51.4348 131.032 51.4248 131.032 50.9251 131.142L50.8451 131.482C50.8052 131.662 50.8152 131.822 51.125 131.822C51.7246 131.822 52.6041 131.572 53.3936 131.292L53.6735 132.282C52.9639 132.641 51.8645 132.941 50.8451 132.941C49.6558 132.941 49.1661 132.511 49.2061 131.692C49.2061 131.512 49.2461 131.322 49.3061 131.112L49.6459 129.763L49.6359 129.733ZM52.6541 129.273C52.6541 129.104 52.4942 128.994 52.1843 128.994C51.5847 128.994 51.3948 129.283 51.2949 129.673L51.2149 130.013C51.4948 129.953 51.6247 129.933 51.9745 129.843C52.4242 129.733 52.6441 129.553 52.6541 129.273Z" fill="#9B9B9B"/>
<path fill-rule="evenodd" clip-rule="evenodd" d="M58.6805 125.156L60.1896 124.926L58.6505 132.921H57.1914L58.6805 125.156Z" fill="#9B9B9B"/>
<path fill-rule="evenodd" clip-rule="evenodd" d="M60.6294 129.733C60.9092 128.634 61.5289 127.924 63.3378 127.924C64.4171 127.924 65.2267 128.314 65.1867 129.123C65.1467 130.063 64.5571 130.493 63.1279 130.852C62.4283 131.032 62.4183 131.032 61.9186 131.142L61.8387 131.482C61.7987 131.662 61.8087 131.822 62.1185 131.822C62.7182 131.822 63.5976 131.572 64.3872 131.292L64.667 132.282C63.9574 132.641 62.8581 132.941 61.8387 132.941C60.6494 132.941 60.1597 132.511 60.1996 131.692C60.1996 131.512 60.2396 131.322 60.2896 131.112L60.6294 129.763V129.733ZM63.6476 129.273C63.6476 129.104 63.4877 128.994 63.1779 128.994C62.5782 128.994 62.3883 129.283 62.2884 129.673L62.2085 130.013C62.4883 129.953 62.6182 129.933 62.968 129.843C63.4177 129.733 63.6376 129.553 63.6476 129.273Z" fill="#9B9B9B"/>
<path fill-rule="evenodd" clip-rule="evenodd" d="M64.1872 132.601L64.4971 131.572C64.8568 131.702 65.2766 131.822 65.8063 131.822C66.276 131.822 66.306 131.682 66.356 131.462C66.4059 131.242 66.266 131.122 65.7263 130.842C64.7269 130.313 64.6969 129.953 64.8568 129.233C65.0867 128.194 65.4065 127.924 66.7457 127.924C67.2055 127.924 67.7851 128.024 68.1849 128.154L67.915 129.203C67.5552 129.103 67.0355 129.024 66.6957 129.024C66.276 129.024 66.216 129.074 66.1561 129.333C66.1061 129.563 66.1561 129.613 66.6158 129.853C67.7151 130.443 67.8751 130.653 67.7052 131.412C67.4653 132.501 67.1355 132.931 65.6764 132.931C65.2266 132.931 64.607 132.801 64.1772 132.611" fill="#9B9B9B"/>
<path fill-rule="evenodd" clip-rule="evenodd" d="M69.2242 132.901L69.584 131.682C70.0138 131.832 70.5035 131.972 71.1231 131.972C71.6728 131.972 71.7128 131.812 71.7727 131.532C71.8327 131.272 71.6728 131.132 71.0332 130.792C69.8539 130.153 69.8239 129.733 70.0038 128.874C70.2736 127.634 70.6434 127.314 72.2325 127.314C72.7721 127.314 73.4617 127.434 73.9315 127.584L73.6216 128.834C73.2019 128.714 72.5823 128.624 72.1825 128.624C71.6928 128.624 71.6128 128.684 71.5429 128.983C71.4829 129.253 71.5429 129.313 72.0825 129.603C73.3718 130.313 73.5717 130.553 73.3718 131.462C73.092 132.751 72.7022 133.271 70.9832 133.271C70.4535 133.271 69.714 133.121 69.2242 132.891" fill="#9B9B9B"/>
<path fill-rule="evenodd" clip-rule="evenodd" d="M73.7715 134.44L74.7209 133.161H74.1013L74.5111 131.202H76.1701L75.7203 133.301L74.3511 134.92L73.7715 134.44Z" fill="#9B9B9B"/>
<path fill-rule="evenodd" clip-rule="evenodd" d="M82.2165 132.811L82.1865 132.342C81.7868 132.661 81.2271 132.921 80.4475 132.921C79.2782 132.921 79.0084 132.202 79.2682 130.992L79.5781 129.533C79.8479 128.234 80.2077 127.265 82.4763 127.265C82.6462 127.265 82.986 127.285 83.126 127.324L83.5757 125.156L85.1747 124.936L83.5257 132.821H82.2065L82.2165 132.811ZM80.7873 131.182C80.7174 131.472 80.7873 131.602 81.0672 131.602C81.6168 131.602 82.0266 131.312 82.3364 131.042L82.8361 128.624C82.6562 128.594 82.4464 128.584 82.2265 128.584C81.417 128.584 81.2371 129.023 81.1171 129.543L80.7773 131.182H80.7873Z" fill="#9B9B9B"/>
<path fill-rule="evenodd" clip-rule="evenodd" d="M84.1754 131.312C84.1754 131.202 84.1954 131.082 84.2254 130.972L84.4752 129.863C84.7551 128.634 85.4247 127.924 87.2236 127.924C88.6128 127.924 89.2024 128.664 89.1725 129.523C89.1725 129.633 89.1525 129.753 89.1325 129.873L88.8826 130.982C88.6128 132.132 87.9931 132.921 86.1243 132.921C84.815 132.921 84.1554 132.192 84.1854 131.312H84.1754ZM87.6733 129.623C87.6833 129.263 87.4635 129.084 86.9738 129.084C86.4141 129.084 86.0743 129.353 85.9744 129.823L85.7045 131.012C85.6945 131.082 85.6745 131.152 85.6745 131.212C85.6645 131.562 85.8844 131.752 86.3741 131.752C86.9438 131.752 87.2736 131.482 87.3735 131.012L87.6434 129.823C87.6534 129.753 87.6733 129.683 87.6733 129.623Z" fill="#9B9B9B"/>
<path fill-rule="evenodd" clip-rule="evenodd" d="M98.6268 129.593C98.6368 129.533 98.6468 129.483 98.6568 129.443C98.6568 129.343 98.6069 129.303 98.4669 129.303C98.1971 129.303 97.5675 129.563 97.1477 129.773L96.4781 132.921H95.049L95.7585 129.593C95.7685 129.533 95.7785 129.483 95.7885 129.443C95.7885 129.343 95.7386 129.303 95.5986 129.303C95.3288 129.303 94.6892 129.563 94.2894 129.763L93.6198 132.921H92.1807L93.2001 128.144L94.4793 127.934L94.4493 128.474C95.2388 128.114 95.8585 127.924 96.4281 127.924C96.9179 127.924 97.1677 128.134 97.2676 128.494C98.0372 128.064 98.7268 127.924 99.3064 127.924C99.976 127.924 100.206 128.294 100.186 128.924C100.186 129.094 100.166 129.283 100.116 129.483L99.3764 132.921H97.9372L98.6468 129.593" fill="#9B9B9B"/>
<path fill-rule="evenodd" clip-rule="evenodd" d="M101.165 131.312C101.165 131.202 101.185 131.082 101.205 130.972L101.455 129.863C101.735 128.634 102.405 127.924 104.203 127.924C105.593 127.924 106.182 128.664 106.152 129.523C106.152 129.633 106.132 129.753 106.112 129.873L105.862 130.982C105.593 132.132 104.973 132.921 103.104 132.921C101.795 132.921 101.135 132.192 101.165 131.312ZM104.663 129.623C104.673 129.263 104.453 129.084 103.964 129.084C103.404 129.084 103.064 129.353 102.964 129.823L102.694 131.012C102.684 131.082 102.664 131.152 102.664 131.212C102.654 131.562 102.874 131.752 103.364 131.752C103.934 131.752 104.263 131.482 104.363 131.012L104.633 129.823C104.643 129.753 104.663 129.683 104.663 129.623Z" fill="#9B9B9B"/>
<path fill-rule="evenodd" clip-rule="evenodd" d="M111.129 129.203C110.4 129.543 110.13 129.673 109.48 130.033L108.781 132.921H107.162L108.301 128.134L109.73 127.924L109.67 128.594C110.22 128.314 110.67 128.114 111.149 127.924L111.119 129.203" fill="#9B9B9B"/>
<path fill-rule="evenodd" clip-rule="evenodd" d="M111.599 129.733C111.879 128.634 112.499 127.924 114.308 127.924C115.387 127.924 116.196 128.314 116.156 129.123C116.116 130.063 115.527 130.493 114.098 130.852C113.398 131.032 113.388 131.032 112.888 131.142L112.808 131.482C112.768 131.662 112.778 131.822 113.088 131.822C113.688 131.822 114.567 131.572 115.357 131.292L115.637 132.282C114.927 132.641 113.828 132.941 112.808 132.941C111.619 132.941 111.129 132.511 111.169 131.692C111.169 131.512 111.209 131.322 111.259 131.112L111.599 129.763V129.733ZM114.617 129.273C114.617 129.104 114.457 128.994 114.148 128.994C113.548 128.994 113.358 129.283 113.258 129.673L113.178 130.013C113.458 129.953 113.588 129.933 113.938 129.843C114.387 129.733 114.607 129.553 114.617 129.273Z" fill="#9B9B9B"/>
<path fill-rule="evenodd" clip-rule="evenodd" d="M113.278 102.319C112.848 100.66 111.639 99.8807 108.911 99.8807H97.4475C97.1877 99.8807 96.9179 100.001 96.8679 100.261L92.5205 120.828C92.4605 121.088 92.4505 121.278 92.4805 121.398C92.5105 121.528 93.0202 121.508 93.28 121.508H97.2576C97.5275 121.508 98.0072 121.528 98.1471 121.468C98.297 121.408 98.357 121.018 98.417 120.758L99.8161 113.553L101.535 105.557C101.595 105.298 101.855 105.088 102.115 105.088H113.478C113.738 105.088 113.908 104.868 113.848 104.618L113.308 102.329L113.278 102.319Z" fill="#4A4A4A"/>
<path fill-rule="evenodd" clip-rule="evenodd" d="M131.547 96.2729H129.978C129.708 96.2729 124.941 96.2729 124.941 96.2729C124.681 96.2729 124.342 96.5528 124.192 96.7727L115.347 109.735C115.197 109.955 115.027 109.945 114.967 109.685L114.318 106.847C114.258 106.587 113.998 106.377 113.728 106.377H108.041C107.781 106.377 107.621 106.597 107.691 106.847L110.24 115.751C110.31 116.001 110.32 116.421 110.25 116.681L109.061 121.188C109.001 121.448 109.161 121.518 109.43 121.518H115.047C115.307 121.518 115.587 121.438 115.647 121.188L116.836 116.621C116.896 116.371 117.086 116.021 117.246 115.811L131.677 96.7327C131.837 96.5228 131.817 96.2729 131.557 96.2729H131.547Z" fill="#4A4A4A"/>
<path d="M66.136 99.9408C65.8762 99.9408 65.6163 100.031 65.5664 100.281L63.9074 107.956L62.2583 115.312C62.2084 115.562 61.9485 115.542 61.6887 115.542H58.4006C55.1426 115.542 55.5223 113.503 56.1919 110.445C56.1919 110.415 58.2807 100.281 58.2807 100.281C58.3307 100.031 58.1608 99.9408 57.9009 99.9408H53.1337C52.8739 99.9408 52.624 100.031 52.5741 100.281L50.6552 110.445C49.6958 115.941 49.6658 120.768 56.092 120.928C56.2019 120.928 66.236 120.928 66.236 120.928C66.4958 120.928 66.7457 120.848 66.8056 120.599L68.9843 110.415L71.1531 100.181C71.1531 100.181 71.233 99.9508 71.1431 99.9508H66.136V99.9408Z" fill="#4A4A4A"/>
<path fill-rule="evenodd" clip-rule="evenodd" d="M21.0928 99.9408H15.756C15.4961 99.9408 15.2463 100.001 15.1863 100.261L14.2269 104.488C14.1769 104.738 14.3368 104.938 14.5967 104.938H19.7036C19.9635 104.938 20.2133 104.698 20.2733 104.448L21.2028 100.191C21.2028 100.191 21.2727 99.9408 21.1028 99.9408H21.0928Z" fill="#4A4A4A"/>
<path fill-rule="evenodd" clip-rule="evenodd" d="M18.8542 106.967L13.7672 106.937C13.5173 106.937 13.2575 107.147 13.2075 107.396L12.4979 110.634L10.9089 118.11C10.9089 118.11 10.0594 122.078 9.97942 122.328C9.97942 122.328 9.26984 125.196 7.56086 125.076C6.77133 125.026 5.86187 124.836 5.86187 124.836C5.38215 124.686 5.35217 125.196 5.2922 125.446L4.23283 130.103C4.17287 130.353 4.33277 130.583 4.58262 130.593C4.58262 130.593 6.86127 130.922 8.47032 130.922H8.73017C12.7078 130.922 14.8066 128.524 16.1458 122.008L17.7148 114.472L19.194 107.456C19.2439 107.196 19.094 106.967 18.8442 106.967H18.8542Z" fill="#4A4A4A"/>
<path fill-rule="evenodd" clip-rule="evenodd" d="M83.8856 100.091C74.751 100.091 72.5723 105.727 71.353 111.314C70.1437 117.011 70.2437 121.508 79.6981 121.508H88.343C88.6028 121.508 88.8527 121.268 88.9026 121.018L89.8321 117.4C89.882 117.141 89.7121 117.071 89.4523 117.071H80.9473C77.8692 117.071 76.7698 116.121 76.8698 114.002C76.8698 113.763 77.1496 113.143 77.4094 113.143H90.5117C91.0913 113.143 91.1013 112.803 91.1013 112.803C92.4305 106.797 92.5205 100.091 83.8756 100.091H83.8856ZM86.2942 109.035C86.2942 109.315 85.4047 109.265 85.4047 109.265L78.2789 109.215C78.0291 109.215 77.9591 108.875 77.9491 108.626C77.9491 108.626 77.9691 108.326 77.9891 108.256C78.5388 106.347 80.1778 105.258 82.7863 105.258C85.7145 105.258 86.3441 106.707 86.3441 108.316L86.3042 109.035H86.2942Z" fill="#4A4A4A"/>
<path fill-rule="evenodd" clip-rule="evenodd" d="M36.6236 94.0842C27.3791 94.0842 23.3714 100.73 21.8323 107.946C20.3032 115.222 22.3021 121.558 31.4966 121.508H45.5283C45.7881 121.508 46.058 121.288 46.1179 121.038L47.2972 116.541C47.3572 116.291 47.1973 116.081 46.9375 116.081H45.8081L44.6788 116.071C44.4589 116.071 44.329 115.921 44.359 115.731C44.359 115.701 44.359 115.661 44.389 115.621C44.389 115.621 46.9475 109.415 47.5271 105.837C48.3266 101.04 45.9181 94.0842 36.6136 94.0842H36.6236ZM40.7211 107.736L39.5718 111.824L38.5224 115.412C38.4525 115.661 38.1527 115.831 37.8928 115.831H32.466C28.3485 115.831 27.3391 112.653 28.3485 107.906C29.3579 103.059 31.3467 100.061 35.4043 99.7509C40.951 99.3311 42.0803 103.239 40.7411 107.726L40.7211 107.736Z" fill="#4A4A4A"/>
<path fill-rule="evenodd" clip-rule="evenodd" d="M30.7471 18.539C23.0416 29.4825 23.9911 43.724 29.8876 55.3572C30.0175 55.637 30.1674 55.9068 30.3173 56.1867C30.3973 56.3666 30.4972 56.5464 30.5972 56.7163C30.6371 56.8163 30.7071 56.9162 30.7671 57.0162C30.857 57.2061 30.9669 57.376 31.0669 57.5658C31.2568 57.8857 31.4467 58.2055 31.6366 58.5153C31.7465 58.6852 31.8464 58.8651 31.9664 59.035C32.1662 59.3748 32.3961 59.7046 32.606 60.0444C32.6959 60.1843 32.7859 60.3242 32.8858 60.4641C33.1856 60.9239 33.4955 61.3736 33.8253 61.8133C33.8253 61.8233 33.8352 61.8433 33.8452 61.8433C33.8952 61.9233 33.9552 61.9932 34.0051 62.0632C34.285 62.4429 34.5748 62.8227 34.8646 63.1925C34.9646 63.3324 35.0745 63.4623 35.1844 63.6023C35.4543 63.9221 35.7241 64.2519 35.984 64.5717C36.0839 64.6816 36.1839 64.8115 36.2938 64.9315C36.6436 65.3512 37.0234 65.771 37.4031 66.1807C37.4031 66.1807 37.4131 66.2007 37.4231 66.2107C37.4331 66.2307 37.4531 66.2407 37.4731 66.2607C37.8429 66.6605 38.2127 67.0502 38.5924 67.43C38.7124 67.5499 38.8323 67.6599 38.9622 67.7898C39.252 68.0796 39.5419 68.3694 39.8517 68.6593C39.9816 68.7792 40.1015 68.8891 40.2215 69.0091C40.6212 69.3788 41.031 69.7586 41.4507 70.1184C41.4507 70.1184 41.4607 70.1284 41.4707 70.1384C41.5407 70.1984 41.6206 70.2583 41.6806 70.3183C42.0504 70.6281 42.4202 70.9479 42.7999 71.2577C42.9498 71.3876 43.0998 71.4976 43.2597 71.6175C43.5695 71.8674 43.8893 72.0972 44.2091 72.3371C44.379 72.457 44.5389 72.5869 44.7088 72.7069C45.0486 72.9567 45.4084 73.2066 45.7482 73.4464C45.8781 73.5364 45.998 73.6263 46.138 73.7163C46.1679 73.7463 46.2079 73.7662 46.2379 73.7962C46.5877 74.0161 46.9175 74.236 47.2573 74.4558C47.4072 74.5558 47.5571 74.6457 47.697 74.7457C48.2267 75.0755 48.7564 75.4053 49.2861 75.7151C49.436 75.795 49.5859 75.875 49.7358 75.9649C50.1256 76.1848 50.5254 76.4147 50.9251 76.6245C51.145 76.7445 51.3649 76.8544 51.5947 76.9643C51.8646 77.1143 52.1544 77.2642 52.4442 77.4041C52.5142 77.4341 52.5841 77.454 52.6441 77.494C52.764 77.544 52.884 77.604 52.9939 77.6639C53.4336 77.8838 53.8934 78.0837 54.3631 78.2836C54.453 78.3235 54.543 78.3635 54.6429 78.4135C55.1626 78.6333 55.6923 78.8532 56.232 79.0631C56.3619 79.1131 56.4818 79.163 56.6217 79.213C57.1114 79.4029 57.6111 79.5828 58.1109 79.7627C58.1708 79.7927 58.2308 79.8126 58.2907 79.8326C58.8504 80.0225 59.4001 80.2024 59.9598 80.3723C60.0897 80.4123 60.2296 80.4523 60.3595 80.4922C60.9392 80.6621 61.4888 80.862 62.0785 80.972C99.3464 87.688 110.18 58.8351 110.18 58.8351C101.085 70.5382 84.9349 73.6363 69.644 70.1884C69.0744 70.0584 68.5147 69.8785 67.935 69.7086C67.8051 69.6687 67.6552 69.6287 67.5153 69.5787C66.9556 69.4088 66.4159 69.2389 65.8762 69.049C65.7963 69.019 65.7163 68.9991 65.6464 68.9691C65.1567 68.7992 64.677 68.6193 64.1972 68.4394C64.0673 68.3794 63.9274 68.3395 63.7875 68.2895C63.2578 68.0796 62.7381 67.8597 62.2184 67.6399C62.1085 67.5999 62.0085 67.5499 61.8986 67.5099C61.4489 67.3101 61.0191 67.1102 60.5894 66.9003C60.4595 66.8403 60.3395 66.7804 60.1996 66.7204C59.8598 66.5605 59.52 66.3806 59.1802 66.2107C58.9504 66.0908 58.7205 65.9809 58.5006 65.8609C58.0909 65.6411 57.6811 65.4112 57.2714 65.1913C57.1414 65.1014 57.0015 65.0314 56.8616 64.9615C56.3319 64.6516 55.7922 64.3318 55.2725 63.992C55.1226 63.9021 54.9827 63.8021 54.8428 63.7122C54.463 63.4723 54.0832 63.2225 53.7035 62.9726C53.5835 62.8827 53.4636 62.8027 53.3337 62.7128C52.9739 62.4629 52.6241 62.2131 52.2643 61.9532C52.1144 61.8333 51.9545 61.7134 51.7846 61.6034C51.4648 61.3536 51.145 61.1137 50.8252 60.8539C50.6853 60.734 50.5453 60.624 50.4054 60.5141C49.9857 60.1843 49.5959 59.8545 49.1961 59.5047C49.1562 59.4647 49.1062 59.4247 49.0562 59.3948C48.6365 59.025 48.2067 58.6352 47.797 58.2554C47.667 58.1355 47.5671 58.0256 47.4372 57.9156C47.1374 57.6258 46.8275 57.336 46.5377 57.0362C46.4078 56.9162 46.2979 56.7963 46.1779 56.6764C45.7982 56.2966 45.4284 55.9068 45.0586 55.5071C45.0386 55.4871 45.0186 55.4671 44.9986 55.4471C44.6189 55.0273 44.2391 54.6076 43.8693 54.1778C43.7694 54.0579 43.6794 53.948 43.5695 53.8281C43.2996 53.4983 43.0298 53.1684 42.75 52.8287C42.66 52.6987 42.5601 52.5788 42.4601 52.4589C42.1403 52.0491 41.8305 51.6394 41.5207 51.2196C33.0357 39.7764 29.9675 23.9858 36.7635 11.0234L30.7471 18.569V18.539Z" fill="#4A4A4A"/>
<path fill-rule="evenodd" clip-rule="evenodd" d="M54.4031 10.4439C48.7964 18.4891 49.1062 29.2627 53.4736 37.7776C54.1932 39.2068 55.0127 40.586 55.9422 41.9052C56.7817 43.1045 57.7011 44.5336 58.8205 45.5031C59.2102 45.9428 59.64 46.3726 60.0797 46.8123C60.1897 46.9222 60.2996 47.0222 60.4095 47.1421C60.8293 47.5419 61.249 47.9416 61.6888 48.3314C61.6988 48.3514 61.7287 48.3614 61.7387 48.3814H61.7487C62.2384 48.8111 62.7281 49.2209 63.2478 49.6206C63.3678 49.7106 63.4777 49.8005 63.5976 49.8905C64.1073 50.2902 64.627 50.67 65.1467 51.0398C65.1667 51.0398 65.1767 51.0598 65.2067 51.0698C65.4365 51.2297 65.6764 51.3896 65.9263 51.5395C66.0362 51.6095 66.1461 51.6894 66.2561 51.7594C66.6458 52.0092 67.0256 52.2391 67.4154 52.4789C67.4753 52.5089 67.5253 52.5389 67.5853 52.5689C67.9151 52.7688 68.2649 52.9686 68.6147 53.1385C68.7346 53.2085 68.8545 53.2685 68.9744 53.3384C69.2143 53.4584 69.4542 53.5883 69.694 53.7082C69.724 53.7282 69.774 53.7382 69.804 53.7582C70.2937 53.998 70.7934 54.2279 71.2931 54.4478C71.413 54.4977 71.5129 54.5377 71.6329 54.5877C72.0426 54.7576 72.4524 54.9275 72.8521 55.0874C73.032 55.1474 73.2019 55.2173 73.3718 55.2773C73.7416 55.4072 74.1314 55.5371 74.5012 55.667C74.6811 55.727 74.851 55.777 75.0109 55.827C75.5406 55.9968 76.0802 56.2067 76.6399 56.2967C105.493 61.0838 112.159 38.847 112.159 38.847C106.152 47.5019 94.5193 51.6294 82.1067 48.4113C81.547 48.2714 81.0073 48.1115 80.4776 47.9316C80.3077 47.8917 80.1578 47.8317 79.9879 47.7817C79.5981 47.6618 79.2184 47.5319 78.8386 47.3919C78.6687 47.332 78.4888 47.262 78.3189 47.2021C77.9091 47.0422 77.4994 46.8823 77.0996 46.7024C76.9797 46.6524 76.8698 46.6124 76.7698 46.5624C76.2601 46.3426 75.7504 46.1027 75.2507 45.8629C75.0009 45.7329 74.751 45.603 74.5012 45.4731C74.3513 45.3931 74.2013 45.3232 74.0714 45.2532C73.7316 45.0833 73.4218 44.8934 73.112 44.7035C73.032 44.6636 72.9621 44.6236 72.8821 44.5836C72.4924 44.3538 72.0926 44.1139 71.7328 43.874C71.6029 43.8041 71.5029 43.7141 71.383 43.6442C71.1332 43.4843 70.8833 43.3244 70.6235 43.1445C70.1038 42.7747 69.5841 42.3949 69.0744 42.0051C68.9545 41.9052 68.8445 41.8153 68.7246 41.7253C63.2778 37.4379 58.9704 31.5713 56.9316 24.9253C54.7829 18.0294 55.2526 10.284 58.9604 3.99768L54.4031 10.4439Z" fill="#4A4A4A"/>
<path fill-rule="evenodd" clip-rule="evenodd" d="M93.7597 26.6642C93.1301 26.5243 92.4405 26.3044 91.8309 26.0945C91.0513 25.8347 90.2818 25.5349 89.5322 25.1951C88.1231 24.5454 86.7639 23.7659 85.5046 22.8664C78.3489 17.7395 73.9115 7.96528 78.5787 0L76.0602 3.28805C72.6722 7.97527 72.3524 13.8118 74.691 18.9787C77.1696 24.4755 82.2266 28.7929 88.1331 30.8417C88.3729 30.9317 88.6128 31.0016 88.8626 31.0816C88.9726 31.1116 89.0725 31.1415 89.1924 31.1815C89.5322 31.2815 89.882 31.4014 90.2318 31.4713C106.552 34.4496 110.98 23.556 112.159 21.957C108.271 27.2339 101.755 28.4931 93.7597 26.6642Z" fill="#4A4A4A"/>
</g>
<defs>
<filter id="filter0_d_11_45" x="0.222778" y="0" width="135.554" height="142.92" filterUnits="userSpaceOnUse" color-interpolation-filters="sRGB">
<feFlood flood-opacity="0" result="BackgroundImageFix"/>
<feColorMatrix in="SourceAlpha" type="matrix" values="0 0 0 0 0 0 0 0 0 0 0 0 0 0 0 0 0 0 127 0" result="hardAlpha"/>
<feOffset dy="4"/>
<feGaussianBlur stdDeviation="2"/>
<feComposite in2="hardAlpha" operator="out"/>
<feColorMatrix type="matrix" values="0 0 0 0 0 0 0 0 0 0 0 0 0 0 0 0 0 0 0.25 0"/>
<feBlend mode="normal" in2="BackgroundImageFix" result="effect1_dropShadow_11_45"/>
<feBlend mode="normal" in="SourceGraphic" in2="effect1_dropShadow_11_45" result="shape"/>
</filter>
<clipPath id="clip0_11_45">
<rect width="127.554" height="134.92" fill="white" transform="translate(4.22278)"/>
</clipPath>
</defs>
</svg>
