<svg width="28" height="28" viewBox="0 0 28 28" fill="none" xmlns="http://www.w3.org/2000/svg">
<path id="Vector" d="M20.5491 18.0988C22.2436 15.7865 23.0026 12.9196 22.6741 10.0718C22.3457 7.22392 20.9541 4.6051 18.7777 2.73924C16.6013 0.87337 13.8007 -0.101936 10.9361 0.00844215C8.07146 0.11882 5.35417 1.30674 3.32781 3.33455C1.30146 5.36235 0.115483 8.08049 0.00715487 10.9452C-0.101173 13.8098 0.876136 16.6098 2.74356 18.7848C4.61098 20.9599 7.2308 22.3496 10.0789 22.676C12.927 23.0024 15.7933 22.2414 18.1043 20.5453H18.1026C18.1551 20.6153 18.2111 20.6818 18.2741 20.7465L25.0116 27.484C25.3397 27.8124 25.7849 27.9969 26.2491 27.9971C26.7133 27.9973 27.1586 27.813 27.487 27.4849C27.8153 27.1567 27.9999 26.7116 28.0001 26.2474C28.0002 25.7832 27.816 25.3379 27.4878 25.0095L20.7503 18.272C20.6878 18.2087 20.6205 18.1519 20.5491 18.0988ZM21.0006 11.3718C21.0006 12.6357 20.7516 13.8873 20.2679 15.0551C19.7842 16.2228 19.0753 17.2839 18.1815 18.1777C17.2877 19.0714 16.2267 19.7804 15.0589 20.2641C13.8912 20.7478 12.6396 20.9968 11.3756 20.9968C10.1116 20.9968 8.86003 20.7478 7.69227 20.2641C6.52451 19.7804 5.46346 19.0714 4.56969 18.1777C3.67593 17.2839 2.96696 16.2228 2.48325 15.0551C1.99955 13.8873 1.75059 12.6357 1.75059 11.3718C1.75059 8.81905 2.76465 6.37089 4.56969 4.56586C6.37473 2.76082 8.82289 1.74676 11.3756 1.74676C13.9283 1.74676 16.3765 2.76082 18.1815 4.56586C19.9865 6.37089 21.0006 8.81905 21.0006 11.3718Z" fill="black"/>
</svg>
