<svg width="32" height="32" viewBox="0 0 32 32" fill="none" xmlns="http://www.w3.org/2000/svg">
<rect width="32" height="32" fill="#F5F5F5"/>
<path d="M-1011 -2043C-1011 -2044.1 -1010.1 -2045 -1009 -2045H249C250.105 -2045 251 -2044.1 251 -2043V165C251 166.104 250.105 167 249 167H-1009C-1010.1 167 -1011 166.104 -1011 165V-2043Z" fill="#404040"/>
<rect width="1024" height="132" transform="translate(-896 -50)" fill="#323228"/>
<path fill-rule="evenodd" clip-rule="evenodd" d="M16 32C24.8366 32 32 24.8366 32 16C32 7.16344 24.8366 0 16 0C7.16344 0 0 7.16344 0 16C0 24.8366 7.16344 32 16 32ZM23.9587 13.9485C23.9587 18.6124 19.83 24 12.2825 24C10.0566 24.0006 7.87689 23.4532 6 22.4224C6.32353 22.4559 6.64915 22.472 6.975 22.4708C8.82425 22.4734 10.6207 21.9397 12.075 20.9557C11.2189 20.9426 10.389 20.6992 9.70156 20.2595C9.01409 19.8198 8.50348 19.2059 8.24125 18.5037C8.49423 18.5452 8.75123 18.5657 9.00875 18.5651C9.37404 18.5665 9.73783 18.5248 10.09 18.4412C9.16218 18.2785 8.32805 17.8447 7.72859 17.2133C7.12913 16.5819 6.80112 15.7916 6.8 14.9759V14.9274C7.37065 15.1972 8.00692 15.3477 8.6575 15.3668C7.78932 14.8666 7.17465 14.1005 6.93831 13.2241C6.70197 12.3477 6.86168 11.4266 7.385 10.6479C8.41586 11.7397 9.70159 12.6326 11.1588 13.2688C12.616 13.9049 14.2122 14.27 15.8438 14.3405C15.639 13.5823 15.7301 12.7871 16.1031 12.0781C16.476 11.369 17.1099 10.7857 17.9067 10.4185C18.7034 10.0513 19.6185 9.92062 20.5101 10.0468C21.4018 10.173 22.2202 10.5489 22.8387 11.1164C23.7588 10.9628 24.6412 10.6739 25.4475 10.2624C25.1397 11.0819 24.4969 11.7772 23.6388 12.2191C24.4535 12.1345 25.2491 11.9465 26 11.6613C25.4488 12.3722 24.7551 12.9928 23.9513 13.4941C23.9587 13.6449 23.9587 13.7978 23.9587 13.9485Z" fill="white"/>
<path d="M-1009 -2044H249V-2046H-1009V-2044ZM250 -2043V165H252V-2043H250ZM249 166H-1009V168H249V166ZM-1010 165V-2043H-1012V165H-1010ZM-1009 166C-1009.55 166 -1010 165.552 -1010 165H-1012C-1012 166.657 -1010.66 168 -1009 168V166ZM250 165C250 165.552 249.552 166 249 166V168C250.657 168 252 166.657 252 165H250ZM249 -2044C249.552 -2044 250 -2043.55 250 -2043H252C252 -2044.66 250.657 -2046 249 -2046V-2044ZM-1009 -2046C-1010.66 -2046 -1012 -2044.66 -1012 -2043H-1010C-1010 -2043.55 -1009.55 -2044 -1009 -2044V-2046Z" fill="white" fill-opacity="0.1"/>
</svg>
